<svg fill="#000000" height="512px" width="512px" version="1.1" id="Layer_1" xmlns="http://www.w3.org/2000/svg" xmlns:xlink="http://www.w3.org/1999/xlink" viewBox="0 0 512 512" xml:space="preserve" style="--darkreader-inline-fill: var(--darkreader-background-000000, #000000);" data-darkreader-inline-fill=""><g id="SVGRepo_bgCarrier" stroke-width="0"></g><g id="SVGRepo_tracerCarrier" stroke-linecap="round" stroke-linejoin="round"></g><g id="SVGRepo_iconCarrier"> <g> <g> <path d="M501.801,146.786H167.267v-25.783c0-30.369-24.707-55.076-55.076-55.076s-55.076,24.707-55.076,55.076v25.783H10.199 C4.566,146.786,0,151.352,0,156.985v278.888c0,5.633,4.566,10.199,10.199,10.199h491.602c5.633,0,10.199-4.566,10.199-10.199 V156.985C512,151.352,507.434,146.786,501.801,146.786z M77.514,121.003c0-19.121,15.556-34.677,34.677-34.677 s34.677,15.556,34.677,34.677v25.783H77.514V121.003z M491.602,425.674H20.398v-258.49h36.717v47.142 c0,18.277,14.87,33.147,33.147,33.147s33.147-14.87,33.147-33.147v-19.888c0-5.633-4.566-10.199-10.199-10.199 c-5.633,0-10.199,4.566-10.199,10.199v19.888c0,7.03-5.719,12.749-12.749,12.749c-7.03,0-12.749-5.72-12.749-12.749v-47.142 h414.088V425.674z"></path> </g> </g> <g> <g> <path d="M207.044,348.446H73.02c-5.633,0-10.199,4.566-10.199,10.199c0,5.633,4.566,10.199,10.199,10.199h134.024 c5.633,0,10.199-4.566,10.199-10.199C217.243,353.012,212.677,348.446,207.044,348.446z"></path> </g> </g> <g> <g> <path d="M80.501,282.957h-8.032c-5.633,0-10.199,4.566-10.199,10.199s4.566,10.199,10.199,10.199h8.032 c5.633,0,10.199-4.566,10.199-10.199S86.134,282.957,80.501,282.957z"></path> </g> </g> <g> <g> <path d="M207.044,282.957h-87.785c-5.633,0-10.199,4.566-10.199,10.199c0,5.633,4.566,10.199,10.199,10.199h87.785 c5.633,0,10.199-4.566,10.199-10.199S212.677,282.957,207.044,282.957z"></path> </g> </g> <g> <g> <path d="M351.01,306.483c-56.43,0-102.34,37.712-102.34,84.064c0,5.633,4.567,10.199,10.199,10.199h184.282 c5.633,0,10.199-4.566,10.199-10.199C453.351,344.194,407.441,306.483,351.01,306.483z M270.12,380.348 c6.3-30.274,40.176-53.466,80.891-53.466s74.591,23.193,80.892,53.466H270.12z"></path> </g> </g> <g> <g> <path d="M351.872,190.501c-29.244,0-53.036,23.792-53.036,53.036c0,29.244,23.792,53.036,53.036,53.036 c29.244,0,53.036-23.792,53.036-53.036C404.908,214.292,381.117,190.501,351.872,190.501z M351.872,276.174 c-17.996,0-32.637-14.641-32.637-32.637c0-17.996,14.641-32.637,32.637-32.637c17.997,0,32.637,14.641,32.637,32.637 C384.51,261.533,369.869,276.174,351.872,276.174z"></path> </g> </g> </g></svg>